<svg width="296" height="59" viewBox="0 0 296 59" fill="none" xmlns="http://www.w3.org/2000/svg">
<path fill-rule="evenodd" clip-rule="evenodd" d="M18.8371 32.7764L24.8161 13.8324L30.9236 32.7764H39.282L49.6971 9.33423e-09H40.8899L35.1028 18.4204L29.1885 9.33423e-09H20.4449L14.6579 18.4204L8.7436 9.33423e-09H-2.2703e-06L10.4798 32.7764H18.8371Z" transform="translate(128.309 13.1118)" fill="#FFF"/>
<path fill-rule="evenodd" clip-rule="evenodd" d="M17.0372 1.30679e-07C7.65169 1.30679e-07 3.07589e-06 7.80076 3.07589e-06 17.3719C3.07589e-06 26.943 7.65169 34.7437 17.0372 34.7437C26.424 34.7437 34.0745 26.943 34.0745 17.3719C34.0757 7.80076 26.4252 1.30679e-07 17.0372 1.30679e-07ZM17.0372 26.2211C12.2149 26.2211 8.35845 22.2889 8.35845 17.3719C8.35845 12.4548 12.2161 8.52137 17.0372 8.52137C21.8584 8.52137 25.716 12.4548 25.716 17.3719C25.7172 22.2889 21.8596 26.2211 17.0372 26.2211Z" transform="translate(181.229 12.1279)" fill="#FFF"/>
<path fill-rule="evenodd" clip-rule="evenodd" d="M17.036 8.52137V1.30679e-07C13.8215 1.30679e-07 10.8638 0.917592 8.35723 2.49096V0.983659H-4.39413e-07V33.7601H8.35723V17.3719C8.35723 12.4548 12.2149 8.52137 17.036 8.52137Z" transform="translate(222.381 12.1279)" fill="#FFF"/>
<path d="M8.35844 0H-8.78827e-06V45.8882H8.35844V0Z" transform="translate(246.494)" fill="#FFF"/>
<path fill-rule="evenodd" clip-rule="evenodd" d="M25.7161 0V14.6179C23.2095 13.0445 20.2518 12.1269 17.0373 12.1269C7.65171 12.1269 4.39413e-07 19.9277 4.39413e-07 29.4988C4.39413e-07 39.0699 7.65171 46.8706 17.0373 46.8706C20.253 46.8706 23.2107 45.953 25.7161 44.4457V45.887H34.0745V0H25.7161ZM17.036 38.348C12.2137 38.348 8.35723 34.4158 8.35723 29.4988C8.35723 24.5817 12.2149 20.6483 17.036 20.6483C21.8572 20.6483 25.7149 24.5817 25.7149 29.4988C25.7161 34.4158 21.8584 38.348 17.036 38.348Z" transform="translate(261.926 0.00146484)" fill="#FFF"/>
<path fill-rule="evenodd" clip-rule="evenodd" d="M17.0372 1.30679e-07C13.8215 1.30679e-07 10.8638 0.917592 8.35844 2.42611V0.983659H0V46.8718H8.35844V32.2528C10.865 33.8261 13.8227 34.7437 17.0372 34.7437C26.4228 34.7437 34.0745 26.943 34.0745 17.3719C34.0745 7.80076 26.4228 1.30679e-07 17.0372 1.30679e-07ZM17.0372 26.2211C12.2149 26.2211 8.35844 22.2889 8.35844 17.3719C8.35844 12.4548 12.2161 8.52137 17.0372 8.52137C21.8584 8.52137 25.7161 12.4548 25.7161 17.3719C25.7173 22.2889 21.8596 26.2211 17.0372 26.2211Z" transform="translate(0 12.1279)" fill="#FFF"/>
<path fill-rule="evenodd" clip-rule="evenodd" d="M17.0372 1.30679e-07C13.8227 1.30679e-07 10.865 0.917592 8.35724 2.42611V0.983659H4.02795e-07V46.8718H8.35724V32.2528C10.8662 33.8261 13.8239 34.7437 17.0372 34.7437C26.424 34.7437 34.0733 26.943 34.0733 17.3719C34.0733 7.80076 26.424 1.30679e-07 17.0372 1.30679e-07ZM17.0372 26.2211C12.2149 26.2211 8.35724 22.2889 8.35724 17.3719C8.35724 12.4548 12.2161 8.52137 17.0372 8.52137C21.8584 8.52137 25.7161 12.4548 25.7161 17.3719C25.7161 22.2889 21.8584 26.2211 17.0372 26.2211Z" transform="translate(41.1543 12.1279)" fill="#FFF"/>
<path fill-rule="evenodd" clip-rule="evenodd" d="M25.4068 19.6861C24.8416 21.8345 23.4306 23.8006 21.3727 25.0131C17.1971 27.4722 11.926 26.0322 9.51662 21.7733C7.10364 17.5169 8.51591 12.1435 12.6915 9.6856C14.7517 8.47193 17.1251 8.21011 19.2669 8.84264L21.4303 0.603883C17.2163 -0.548613 12.5763 -0.0885931 8.51111 2.30449C0.383049 7.09065 -2.41749 17.747 2.27648 26.0359C6.97045 34.3236 17.4203 37.1791 25.5496 32.3942C29.6148 30.0011 32.3565 26.1912 33.4868 21.8932L25.4068 19.6861Z" transform="translate(80.0508 12.5889)" fill="#FFF"/>
<path fill-rule="evenodd" clip-rule="evenodd" d="M5.4751 11.1836C8.49883 11.1836 10.9502 8.68042 10.9502 5.59242C10.9502 2.50442 8.49883 -2.61358e-07 5.4751 -2.61358e-07C2.45138 -2.61358e-07 -3.66178e-07 2.50442 -3.66178e-07 5.59242C-3.66178e-07 8.68042 2.45138 11.1836 5.4751 11.1836Z" transform="translate(110.473 12.2944)" fill="#12CEBE"/>
</svg>
